<mxfile host="Electron" modified="2024-04-09T03:25:04.907Z" agent="Mozilla/5.0 (Windows NT 10.0; Win64; x64) AppleWebKit/537.36 (KHTML, like Gecko) draw.io/22.1.11 Chrome/114.0.5735.289 Electron/25.9.8 Safari/537.36" etag="ATaOetE13eL3TbKXx_Ai" version="22.1.11" type="device">
  <diagram name="第 1 页" id="dcobNV4wJJuZXhoIVFye">
    <mxGraphModel dx="1098" dy="828" grid="1" gridSize="10" guides="1" tooltips="1" connect="1" arrows="1" fold="1" page="1" pageScale="1" pageWidth="827" pageHeight="1169" math="0" shadow="0">
      <root>
        <mxCell id="0" />
        <mxCell id="1" parent="0" />
        <mxCell id="u0AoBjqLk9gL0gxknRhk-37" style="edgeStyle=orthogonalEdgeStyle;rounded=0;orthogonalLoop=1;jettySize=auto;html=1;entryX=0;entryY=0;entryDx=20;entryDy=35;entryPerimeter=0;exitX=0;exitY=0.5;exitDx=0;exitDy=0;" edge="1" parent="1" source="u0AoBjqLk9gL0gxknRhk-39" target="u0AoBjqLk9gL0gxknRhk-71">
          <mxGeometry relative="1" as="geometry">
            <mxPoint x="80" y="860" as="targetPoint" />
            <Array as="points">
              <mxPoint x="81" y="430" />
              <mxPoint x="81" y="720" />
            </Array>
          </mxGeometry>
        </mxCell>
        <mxCell id="u0AoBjqLk9gL0gxknRhk-38" value="顶点数据" style="rounded=1;whiteSpace=wrap;html=1;" vertex="1" parent="1">
          <mxGeometry x="160" y="280" width="120" height="60" as="geometry" />
        </mxCell>
        <mxCell id="u0AoBjqLk9gL0gxknRhk-39" value="顶点着色器" style="rounded=1;whiteSpace=wrap;html=1;" vertex="1" parent="1">
          <mxGeometry x="160" y="400" width="120" height="60" as="geometry" />
        </mxCell>
        <mxCell id="u0AoBjqLk9gL0gxknRhk-40" style="rounded=0;orthogonalLoop=1;jettySize=auto;html=1;" edge="1" parent="1" source="u0AoBjqLk9gL0gxknRhk-41">
          <mxGeometry relative="1" as="geometry">
            <mxPoint x="80" y="550" as="targetPoint" />
          </mxGeometry>
        </mxCell>
        <mxCell id="u0AoBjqLk9gL0gxknRhk-41" value="细分着色器" style="rounded=1;whiteSpace=wrap;html=1;" vertex="1" parent="1">
          <mxGeometry x="160" y="520" width="120" height="60" as="geometry" />
        </mxCell>
        <mxCell id="u0AoBjqLk9gL0gxknRhk-42" style="rounded=0;orthogonalLoop=1;jettySize=auto;html=1;" edge="1" parent="1" source="u0AoBjqLk9gL0gxknRhk-43">
          <mxGeometry relative="1" as="geometry">
            <mxPoint x="80" y="670" as="targetPoint" />
          </mxGeometry>
        </mxCell>
        <mxCell id="u0AoBjqLk9gL0gxknRhk-43" value="几何着色器" style="rounded=1;whiteSpace=wrap;html=1;" vertex="1" parent="1">
          <mxGeometry x="160" y="640" width="120" height="60" as="geometry" />
        </mxCell>
        <mxCell id="u0AoBjqLk9gL0gxknRhk-48" value="片元着色器" style="rounded=1;whiteSpace=wrap;html=1;" vertex="1" parent="1">
          <mxGeometry x="440" y="440" width="120" height="60" as="geometry" />
        </mxCell>
        <mxCell id="u0AoBjqLk9gL0gxknRhk-49" value="测设&amp;amp;混合" style="rounded=1;whiteSpace=wrap;html=1;" vertex="1" parent="1">
          <mxGeometry x="440" y="560" width="120" height="60" as="geometry" />
        </mxCell>
        <mxCell id="u0AoBjqLk9gL0gxknRhk-50" value="图像" style="rounded=1;whiteSpace=wrap;html=1;" vertex="1" parent="1">
          <mxGeometry x="440" y="680" width="120" height="60" as="geometry" />
        </mxCell>
        <mxCell id="u0AoBjqLk9gL0gxknRhk-62" value="" style="html=1;shadow=0;dashed=0;align=center;verticalAlign=middle;shape=mxgraph.arrows2.arrow;dy=0.6;dx=40;direction=south;notch=0;" vertex="1" parent="1">
          <mxGeometry x="202.5" y="340" width="35" height="60" as="geometry" />
        </mxCell>
        <mxCell id="u0AoBjqLk9gL0gxknRhk-63" value="" style="html=1;shadow=0;dashed=0;align=center;verticalAlign=middle;shape=mxgraph.arrows2.arrow;dy=0.6;dx=40;direction=south;notch=0;" vertex="1" parent="1">
          <mxGeometry x="202.5" y="460" width="35" height="60" as="geometry" />
        </mxCell>
        <mxCell id="u0AoBjqLk9gL0gxknRhk-64" value="" style="html=1;shadow=0;dashed=0;align=center;verticalAlign=middle;shape=mxgraph.arrows2.arrow;dy=0.6;dx=40;direction=south;notch=0;" vertex="1" parent="1">
          <mxGeometry x="202.5" y="580" width="35" height="60" as="geometry" />
        </mxCell>
        <mxCell id="u0AoBjqLk9gL0gxknRhk-68" value="" style="html=1;shadow=0;dashed=0;align=center;verticalAlign=middle;shape=mxgraph.arrows2.arrow;dy=0.6;dx=40;direction=south;notch=0;" vertex="1" parent="1">
          <mxGeometry x="482.5" y="500" width="35" height="60" as="geometry" />
        </mxCell>
        <mxCell id="u0AoBjqLk9gL0gxknRhk-69" value="" style="html=1;shadow=0;dashed=0;align=center;verticalAlign=middle;shape=mxgraph.arrows2.arrow;dy=0.6;dx=40;direction=south;notch=0;" vertex="1" parent="1">
          <mxGeometry x="482.5" y="620" width="35" height="60" as="geometry" />
        </mxCell>
        <mxCell id="u0AoBjqLk9gL0gxknRhk-70" style="edgeStyle=orthogonalEdgeStyle;rounded=0;orthogonalLoop=1;jettySize=auto;html=1;exitX=1;exitY=0.5;exitDx=0;exitDy=0;exitPerimeter=0;entryX=0;entryY=0.5;entryDx=0;entryDy=0;entryPerimeter=0;dashed=1;endArrow=blockThin;endFill=1;" edge="1" parent="1" source="u0AoBjqLk9gL0gxknRhk-71" target="u0AoBjqLk9gL0gxknRhk-72">
          <mxGeometry relative="1" as="geometry">
            <mxPoint x="400" y="120" as="targetPoint" />
            <Array as="points">
              <mxPoint x="220" y="800" />
              <mxPoint x="400" y="800" />
              <mxPoint x="400" y="280" />
              <mxPoint x="500" y="280" />
            </Array>
          </mxGeometry>
        </mxCell>
        <mxCell id="u0AoBjqLk9gL0gxknRhk-71" value="" style="html=1;shadow=0;dashed=0;align=center;verticalAlign=middle;shape=mxgraph.arrows2.arrow;dy=0.6;dx=40;direction=south;notch=0;" vertex="1" parent="1">
          <mxGeometry x="202.5" y="700" width="35" height="60" as="geometry" />
        </mxCell>
        <mxCell id="u0AoBjqLk9gL0gxknRhk-72" value="" style="html=1;shadow=0;dashed=0;align=center;verticalAlign=middle;shape=mxgraph.arrows2.arrow;dy=0.6;dx=40;direction=south;notch=0;" vertex="1" parent="1">
          <mxGeometry x="482.5" y="380" width="35" height="60" as="geometry" />
        </mxCell>
      </root>
    </mxGraphModel>
  </diagram>
</mxfile>
